<svg xmlns="http://www.w3.org/2000/svg" width="256" height="256" viewBox="0 0 256 256"><path d="M128 18.4l94.9 54.8v109.6L128 237.6l-94.9-54.8V73.2L128 18.4z"/><path fill="#ff5e3a" d="M74.4 172.5l-4.2-6a2 2 0 0 1 .2-2.1l14.9-17.7H78a1.7 1.7 0 0 1-1.8-1.8V132a1.7 1.7 0 0 1 1.8-1.8h10.4a49.4 49.4 0 0 1-2-13.7 42.6 42.6 0 0 1 85.2 0 45.9 45.9 0 0 1-2 13.7H180a1.7 1.7 0 0 1 1.8 1.8v12.9a1.7 1.7 0 0 1-1.8 1.8h-9.2l14.8 17.7a1.8 1.8 0 0 1 0 2.1l-4.1 6a2 2 0 0 1-2.4.5l-8.6-4.5H85.3l-8.6 4.5a1.9 1.9 0 0 1-2.3-.5zm27.3-25.8H89.8L74 165.4l2.5 3.6 30.4-16zm-21.9-12.9v9.3h98.4v-9.3zm12.4-3.6h73.6a45.2 45.2 0 0 0 2.2-13.7 39 39 0 0 0-78 0c0 4.7.4 9.5 2.2 13.7zm17.3 25.7l-17.1 9h24.4zm-3.1-9.2l15.1 18.2h13l15.1-18.2zm40.1 9.2l-7.3 9h24.4zm19.7-9.2h-11.9l-5.4 6.3 30.6 16 2.5-3.4z"/></svg>